# xmcd
#
# Track frame offsets:
#	182
#	12892
#	24742
#	36155
#	49597
#	60032
#	72885
#	86027
#	98162
#	109450
#	121360
#	134117
#	145600
#	157970
#	171507
#	183770
#	195945
#	206667
#	219042
#	232440
#	243715
#	256687
#	269675
#	282522
#	295367
#	308152
#
# Disc length: 4274 seconds
#
# Revision: 0
# Processed by: cddbd v1.5.1PL2 Copyright (c) Steve Scherf et al.
# Submitted via: dBpowerAMP V4.0
#
DISCID=8410b01a
DTITLE=Various Artist - Stompin' At The Honky Tonk
DYEAR=1900
DGENRE=Country
TTITLE0=Milton Brown And His Musical Brownies - If You Can't Take Five Take Two
TTITLE1=Cliff Bruner's Texas Wanderers - Sugar
TTITLE2=Texas Wanderers - Rackin' It Back
TTITLE3=Jimmie Revard And His Oklahoma Playboys - Daddy's Got The Deep Elm Blues
TTITLE4=Swift Jewel Cowboys - You Gotta Ho-De-Ho
TTITLE5=Modern Mountaineers - Who Calls You Sweet Mama Now
TTITLE6=Smokey Wood And The Wood Chips - Riding To Glory Now
TTITLE7=Bob Wills And His Texas Playboys - Cotton Eyed Joe
TTITLE8=Dickie McBride And The Village Boys - Tulsa Twist
TTITLE9=Bob Dunn's Vagabonds - Stompin' At The Honky Tonk
TTITLE10=Roy Newman And His Boys - Sadie Green
TTITLE11=Sweet Violet Boys - I Love My Fruit
TTITLE12=Spade Cooley And His Orch - Three Way Boogie
TTITLE13=Luke Willis - Bring It Down To My House Honey
TTITLE14=Tex Atchison - Somebody's Rose
TTITLE15=Adolph Hofner And His San Antonians - South Texas Swing
TTITLE16=Saddle Tramps - Hot As I Am
TTITLE17=Rice Bros Gang - You Are My Sunshine
TTITLE18=Sons Of The Pioneers - The Devil's Great Grandson
TTITLE19=Tex Ritter And The Sons Of The Pioneers - Ay Viva Tequila
TTITLE20=Spade Cooley And His Orch - Oklahoma Stomp
TTITLE21=Jimmie Davis - Mama's Gettin' Hot Papa's Gettin' Cold
TTITLE22=Modern Mountaineers - Who's Cryin' Sweet Papa
TTITLE23=Port Arthur Jubileers - Jones Stomp
TTITLE24=Cliff Bruner And His Boys - New Falling Rain Blues
TTITLE25=Jimmy Walker - Detour
EXTD=
EXTT0=
EXTT1=
EXTT2=
EXTT3=
EXTT4=
EXTT5=
EXTT6=
EXTT7=
EXTT8=
EXTT9=
EXTT10=
EXTT11=
EXTT12=
EXTT13=
EXTT14=
EXTT15=
EXTT16=
EXTT17=
EXTT18=
EXTT19=
EXTT20=
EXTT21=
EXTT22=
EXTT23=
EXTT24=
EXTT25=
PLAYORDER=
